<svg width="53" height="19" viewBox="0 0 53 19" fill="none"
  xmlns="http://www.w3.org/2000/svg">
  <rect x="6.18237" y="0.721863" width="3.17881" height="3.17881" fill="#4F4F4F"/>
  <rect x="6.18237" y="5.80795" width="3.17881" height="3.17881" fill="#4F4F4F"/>
  <rect x="6.18237" y="10.9524" width="3.17881" height="3.17881" fill="#4F4F4F"/>
  <rect x="0.977051" y="5.80795" width="3.17881" height="3.17881" fill="#4F4F4F"/>
  <rect x="0.977051" y="0.721863" width="3.17881" height="3.17881" fill="#4F4F4F"/>
  <rect x="11.3877" y="5.80795" width="3.17881" height="3.17881" fill="#4F4F4F"/>
  <rect x="16.593" y="0.721863" width="3.17881" height="3.17881" fill="#4F4F4F"/>
  <rect x="21.7983" y="0.721863" width="3.17881" height="3.17881" fill="#4F4F4F"/>
  <rect x="16.593" y="5.80795" width="3.17881" height="3.17881" fill="#4F4F4F"/>
  <rect x="21.7983" y="5.80795" width="3.17881" height="3.17881" fill="#4F4F4F"/>
  <rect x="16.593" y="10.894" width="3.17881" height="3.17881" fill="#4F4F4F"/>
  <rect x="11.3877" y="15.8212" width="3.17881" height="3.17881" fill="#4F4F4F"/>
  <rect x="11.3877" y="10.894" width="3.17881" height="3.17881" fill="#4F4F4F"/>
  <rect x="34.1824" y="0.721863" width="3.17881" height="3.17881" fill="#4F4F4F"/>
  <rect x="34.1824" y="5.80795" width="3.17881" height="3.17881" fill="#4F4F4F"/>
  <rect x="34.1824" y="10.9524" width="3.17881" height="3.17881" fill="#4F4F4F"/>
  <rect x="28.9771" y="5.80795" width="3.17881" height="3.17881" fill="#4F4F4F"/>
  <rect x="28.9771" y="0.721863" width="3.17881" height="3.17881" fill="#4F4F4F"/>
  <rect x="39.3877" y="5.80795" width="3.17881" height="3.17881" fill="#4F4F4F"/>
  <rect x="44.593" y="0.721863" width="3.17881" height="3.17881" fill="#4F4F4F"/>
  <rect x="49.7983" y="0.721863" width="3.17881" height="3.17881" fill="#4F4F4F"/>
  <rect x="44.593" y="5.80795" width="3.17881" height="3.17881" fill="#4F4F4F"/>
  <rect x="49.7983" y="5.80795" width="3.17881" height="3.17881" fill="#4F4F4F"/>
  <rect x="44.593" y="10.894" width="3.17881" height="3.17881" fill="#4F4F4F"/>
  <rect x="39.3877" y="15.8212" width="3.17881" height="3.17881" fill="#4F4F4F"/>
  <rect x="39.3877" y="10.894" width="3.17881" height="3.17881" fill="#4F4F4F"/>
</svg>
