<svg width="44" height="42" viewBox="0 0 44 42" fill="none"
  xmlns="http://www.w3.org/2000/svg">
  <path fill-rule="evenodd" clip-rule="evenodd" d="M19.7615 24.4306C20.4735 24.3717 21.1968 24.3408 21.9294 24.3395C21.9453 24.3395 21.9612 24.3395 21.9771 24.3395C22.7035 24.3395 23.4208 24.3685 24.127 24.4252C31.5757 25.0228 37.7915 28.6898 40.454 33.6959C41.9297 36.4707 39.2985 39.1548 36.1557 39.1548H7.79842C4.65564 39.1548 2.02442 36.4707 3.50014 33.6959C6.15475 28.7045 12.3419 25.0443 19.7615 24.4306ZM14.8492 22.3772C11.6999 20.1527 9.64334 16.4841 9.64334 12.3352C9.64334 5.54978 15.144 0.0491333 21.9294 0.0491333C28.7148 0.0491333 34.2154 5.54978 34.2154 12.3352C34.2154 16.4731 32.1698 20.1332 29.0347 22.3594C35.2087 23.9153 40.3726 27.4835 42.966 32.3599C44.3121 34.8908 43.7397 37.5048 42.2036 39.3098C40.7551 41.012 38.4946 42 36.1557 42H7.79842C5.45949 42 3.19898 41.012 1.75047 39.3098C0.214428 37.5048 -0.357971 34.8908 0.988059 32.3599C3.57164 27.502 8.70625 23.9424 14.8492 22.3772ZM19.9344 21.5648C15.6785 20.6492 12.4886 16.8647 12.4886 12.3352C12.4886 7.12117 16.7154 2.89439 21.9294 2.89439C27.1434 2.89439 31.3702 7.12117 31.3702 12.3352C31.3702 16.8566 28.1916 20.6357 23.9471 21.5598C23.312 21.6981 22.6529 21.7725 21.9771 21.7758C21.9612 21.7759 21.9453 21.7759 21.9294 21.7759C21.2449 21.7759 20.5775 21.7031 19.9344 21.5648Z" fill="#4F4F4F"/>
</svg>
