<svg width="523" height="69" viewBox="0 0 523 69" fill="none"
  xmlns="http://www.w3.org/2000/svg">
  <path d="M293.384 37.296L289.568 44.712L293.816 54H288.512L285.416 47.088H283.976V54H279.032V37.296H283.976V43.608H285.536L288.632 37.296H293.384ZM302.457 36.816C304.953 36.816 306.873 37.592 308.217 39.144C309.577 40.68 310.257 42.84 310.257 45.624C310.257 47.432 309.953 49 309.345 50.328C308.737 51.656 307.849 52.68 306.681 53.4C305.513 54.12 304.105 54.48 302.457 54.48C299.961 54.48 298.033 53.704 296.673 52.152C295.329 50.584 294.657 48.408 294.657 45.624C294.657 43.816 294.961 42.256 295.569 40.944C296.177 39.616 297.065 38.6 298.233 37.896C299.401 37.176 300.809 36.816 302.457 36.816ZM302.457 40.32C301.513 40.32 300.833 40.728 300.417 41.544C300.001 42.344 299.793 43.704 299.793 45.624C299.793 47.544 300.001 48.92 300.417 49.752C300.833 50.568 301.513 50.976 302.457 50.976C303.417 50.976 304.097 50.568 304.497 49.752C304.913 48.936 305.121 47.56 305.121 45.624C305.121 43.704 304.913 42.344 304.497 41.544C304.081 40.728 303.401 40.32 302.457 40.32ZM321.739 54V47.256H317.923V54H312.979V37.296H317.923V43.464H321.739V37.296H326.683V54H321.739ZM337.368 36.816C339.432 36.816 341.224 37.472 342.744 38.784L340.464 41.472C339.984 41.12 339.512 40.848 339.048 40.656C338.6 40.464 338.12 40.368 337.608 40.368C336.632 40.368 335.872 40.808 335.328 41.688C334.8 42.568 334.536 43.872 334.536 45.6C334.536 47.328 334.808 48.624 335.352 49.488C335.896 50.336 336.672 50.76 337.68 50.76C338.224 50.76 338.728 50.648 339.192 50.424C339.672 50.2 340.2 49.864 340.776 49.416L342.936 52.152C342.264 52.824 341.448 53.384 340.488 53.832C339.544 54.264 338.528 54.48 337.44 54.48C335.792 54.48 334.368 54.144 333.168 53.472C331.968 52.784 331.04 51.776 330.384 50.448C329.728 49.12 329.4 47.504 329.4 45.6C329.4 43.776 329.736 42.208 330.408 40.896C331.08 39.568 332.016 38.56 333.216 37.872C334.416 37.168 335.8 36.816 337.368 36.816ZM357.318 37.296L356.814 40.992H353.022V54H348.078V40.992H344.022V37.296H357.318ZM365.447 37.296C367.735 37.296 369.511 37.776 370.775 38.736C372.055 39.68 372.695 41.072 372.695 42.912C372.695 44.816 372.087 46.272 370.871 47.28C369.671 48.288 368.047 48.792 365.999 48.792H364.367V54H359.423V37.296H365.447ZM365.519 45.312C366.943 45.312 367.655 44.512 367.655 42.912C367.655 41.456 366.895 40.728 365.375 40.728H364.367V45.312H365.519ZM384.546 48.744C384.018 50.168 383.41 51.28 382.722 52.08C382.034 52.88 381.202 53.456 380.226 53.808C379.266 54.16 378.05 54.384 376.578 54.48L375.954 51.24C376.978 51.16 377.778 51.008 378.354 50.784C378.93 50.56 379.41 50.192 379.794 49.68H378.306L373.314 37.296H378.378L381.258 46.968L383.754 37.296H388.77L384.546 48.744ZM404.745 37.296L400.929 44.712L405.177 54H399.873L396.777 47.088H395.337V54H390.393V37.296H395.337V43.608H396.897L399.993 37.296H404.745ZM419.422 37.296L418.918 40.992H415.126V54H410.182V40.992H406.126V37.296H419.422ZM427.932 36.816C430.428 36.816 432.348 37.592 433.692 39.144C435.052 40.68 435.732 42.84 435.732 45.624C435.732 47.432 435.428 49 434.82 50.328C434.212 51.656 433.324 52.68 432.156 53.4C430.988 54.12 429.58 54.48 427.932 54.48C425.436 54.48 423.508 53.704 422.148 52.152C420.804 50.584 420.132 48.408 420.132 45.624C420.132 43.816 420.436 42.256 421.044 40.944C421.652 39.616 422.54 38.6 423.708 37.896C424.876 37.176 426.284 36.816 427.932 36.816ZM427.932 40.32C426.988 40.32 426.308 40.728 425.892 41.544C425.476 42.344 425.268 43.704 425.268 45.624C425.268 47.544 425.476 48.92 425.892 49.752C426.308 50.568 426.988 50.976 427.932 50.976C428.892 50.976 429.572 50.568 429.972 49.752C430.388 48.936 430.596 47.56 430.596 45.624C430.596 43.704 430.388 42.344 429.972 41.544C429.556 40.728 428.876 40.32 427.932 40.32ZM444.478 37.296C446.766 37.296 448.542 37.776 449.806 38.736C451.086 39.68 451.726 41.072 451.726 42.912C451.726 44.816 451.118 46.272 449.902 47.28C448.702 48.288 447.078 48.792 445.03 48.792H443.398V54H438.454V37.296H444.478ZM444.55 45.312C445.974 45.312 446.686 44.512 446.686 42.912C446.686 41.456 445.926 40.728 444.406 40.728H443.398V45.312H444.55ZM468.215 36.816C470.279 36.816 472.071 37.472 473.591 38.784L471.311 41.472C470.831 41.12 470.359 40.848 469.895 40.656C469.447 40.464 468.967 40.368 468.455 40.368C467.479 40.368 466.719 40.808 466.175 41.688C465.647 42.568 465.383 43.872 465.383 45.6C465.383 47.328 465.655 48.624 466.199 49.488C466.743 50.336 467.519 50.76 468.527 50.76C469.071 50.76 469.575 50.648 470.039 50.424C470.519 50.2 471.047 49.864 471.623 49.416L473.783 52.152C473.111 52.824 472.295 53.384 471.335 53.832C470.391 54.264 469.375 54.48 468.287 54.48C466.639 54.48 465.215 54.144 464.015 53.472C462.815 52.784 461.887 51.776 461.231 50.448C460.575 49.12 460.247 47.504 460.247 45.6C460.247 43.776 460.583 42.208 461.255 40.896C461.927 39.568 462.863 38.56 464.063 37.872C465.263 37.168 466.647 36.816 468.215 36.816ZM484.876 45L489.532 54H484.204L481.9 48.264L479.74 54H474.508L478.972 45.144L474.82 37.296H480.124L481.948 42.096L483.988 37.296H489.196L484.876 45ZM502.503 37.296L501.999 40.728H496.479V43.848H501.327V47.184H496.479V50.544H502.383V54H491.535V37.296H502.503ZM522.796 54H517.924L517.804 48.072C517.788 47.608 517.78 46.912 517.78 45.984C517.78 44.352 517.844 42.776 517.972 41.256L516.004 52.32H511.324L509.212 41.256C509.42 43.48 509.524 45.384 509.524 46.968V48.048L509.404 54H504.532L505.732 37.296H511.828L513.748 48.12L515.476 37.296H521.596L522.796 54Z" fill="black"/>
  <path fill-rule="evenodd" clip-rule="evenodd" d="M119.339 18.1302H135.056V21.5865C135.056 26.8545 133.385 32.3588 131.383 34.8236C132.907 34.8653 134.959 37.7379 134.761 39.7812L134.771 41.426L133.979 54.8762H119.339V18.1302ZM128.277 29.3796C129.289 28.0174 129.8 26.1225 129.8 23.6854V23.0645H124.586V31.4275C126.077 31.3997 127.457 30.6306 128.272 29.375H128.277V29.3796ZM129.262 52.0036L129.786 43.4785C129.924 40.7912 129.298 38.975 127.899 38.0206C126.91 38.2661 125.893 38.3958 124.871 38.3958C124.829 38.3958 124.783 38.3958 124.742 38.3958V52.0082H129.262V52.0036Z" fill="#C83F51"/>
  <path fill-rule="evenodd" clip-rule="evenodd" d="M139.198 18.1302H154.925V54.8762H149.646V36.3433C149.604 36.3433 149.558 36.3433 149.512 36.3433C148.495 36.3433 147.478 36.2182 146.488 35.968C145.085 36.9271 144.454 38.7433 144.592 41.426L145.439 54.8762H140.248L139.461 41.426L139.405 40.314C139.405 37.2422 140.335 34.8607 142.19 33.165C140.726 29.8893 139.18 28.3835 139.18 23.1387L139.198 18.1302ZM145.982 29.2499C146.801 30.5101 148.191 31.2746 149.687 31.2885V23.0506H144.459V23.6715C144.459 26.1178 144.965 28.0174 145.982 29.375V29.2499Z" fill="#C83F51"/>
  <path fill-rule="evenodd" clip-rule="evenodd" d="M159.444 42.7974H164.704V49.9511H169.403L169.928 40.7357C169.955 40.4669 169.969 40.1982 169.969 39.9295C169.969 39.1094 169.85 38.294 169.615 37.5109C169.366 36.8021 168.8 36.2507 168.091 36.0237C167.051 36.3434 165.965 36.5055 164.879 36.5055C164.828 36.5055 164.769 36.5055 164.718 36.5055V31.585C166.209 31.5619 167.599 30.802 168.423 29.5464C169.435 28.1843 169.946 26.2846 169.946 23.8522V23.0553H164.704V28.5132H159.444V18.1348H175.174V21.7348C175.174 27.0676 174.157 30.9503 172.123 33.3827C173.306 33.6098 175.225 34.3603 175.22 40.9488L175.165 42.0052L174.341 54.8809H159.444V42.7974Z" fill="#C83F51"/>
  <path fill-rule="evenodd" clip-rule="evenodd" d="M181.323 29.0414C183.288 27.2206 185.847 26.3078 189.004 26.3125L189.055 23.0321H179.22V18.1117H194.315V54.8577H189.055V42.904H184.117L184.692 54.8762H179.436L178.663 37.5619C178.47 33.7117 179.358 30.8762 181.323 29.0414ZM183.845 37.9603H189.05V31.2561C187.297 31.2561 185.962 31.7518 185.056 32.7434C184.149 33.7302 183.739 35.3333 183.822 37.5619L183.845 37.9603Z" fill="#C83F51"/>
  <path fill-rule="evenodd" clip-rule="evenodd" d="M199.259 18.1302H204.515V31.4182H209.669V18.1302H214.93V54.8716H209.669V36.3387H204.515V54.8716H199.259V18.1302Z" fill="#C83F51"/>
  <path fill-rule="evenodd" clip-rule="evenodd" d="M219.868 18.1302H225.128V29.5093C225.248 29.5047 225.372 29.5001 225.497 29.5001C228.088 29.5001 230.591 30.4869 232.492 32.2568C234.421 34.0962 235.277 36.9225 235.065 40.731L234.273 54.8716H219.863V18.1302H219.868ZM229.855 50.7109L230.38 41.4955C230.518 39.3086 230.15 37.7101 229.275 36.7047C228.396 35.7364 227.149 35.185 225.846 35.185C225.754 35.185 225.662 35.1897 225.57 35.1943V50.7295L229.855 50.7109ZM238.406 18.2043H243.667V54.9503H238.406V18.2043Z" fill="#C83F51"/>
  <path fill-rule="evenodd" clip-rule="evenodd" d="M248.536 18.1302H253.797V32.6368L259.002 28.1842V18.1302H264.203V54.8716H259.002V34.6383L253.797 39.0862V54.8669H248.536V18.1302Z" fill="#C83F51"/>
  <path d="M260.996 12.3063H252.223V14.6878H259.996V12.3063Z" fill="#C83F51"/>
  <path d="M264.248 64.3063H119.248V66.3063H264.248V64.3063Z" fill="#C83F51"/>
  <path fill-rule="evenodd" clip-rule="evenodd" d="M15.4324 52.8065C11.9361 54.9039 8.95673 56.1741 6.84412 56.956C4.3233 57.8873 0 59.2402 0 59.2402L0.591107 61.423C1.67259 61.1188 3.04831 60.7105 4.63343 60.1875C5.48696 59.9046 7.02967 59.395 8.76853 58.7145C10.5074 58.034 12.8241 57.036 15.5172 55.6057C17.3913 56.1741 19.9731 56.8119 23.0929 57.1454C27.4772 57.6151 30.825 57.2575 33.049 57.0093C36.1503 56.6624 40.41 55.9072 45.3085 54.1514L44.0282 52.1794C40.288 53.4949 37.0012 54.1407 34.5175 54.4769C32.0762 54.8078 27.9199 55.3442 22.5973 54.5677C19.6152 54.13 17.1739 53.4149 15.4324 52.8065Z" fill="#C83F51"/>
  <path fill-rule="evenodd" clip-rule="evenodd" d="M14.2689 54.7758C13.8236 54.5436 13.198 54.1887 12.5035 53.679C10.9687 52.5556 9.30145 51.3335 8.71565 49.204C8.31804 47.7524 8.41612 45.8657 9.45785 44.2753C10.4413 42.7757 11.8329 42.1966 12.3286 41.9991C12.697 41.8524 14.974 40.9878 17.3596 42.1192C17.7652 42.3113 18.7459 42.7917 19.5226 43.8564C20.9195 45.775 20.5351 48.0646 20.3761 48.9932C19.899 51.8164 18.0726 53.5776 17.4789 54.1487C17.1581 54.4556 16.8692 54.6931 16.6598 54.8558C16.0369 54.4289 15.414 54.0019 14.7937 53.575C16.013 52.7371 16.7049 51.7924 17.0707 51.2027C17.4709 50.5516 18.685 48.5903 18.1044 46.3861C17.9825 45.9245 17.7493 45.0412 16.954 44.3981C15.8354 43.4908 14.2503 43.5735 13.1503 44.0752C12.029 44.5822 11.4644 45.4948 11.2577 45.8791C11.0562 46.314 10.6957 47.2507 10.9263 48.3474C11.1331 49.3294 11.703 49.9352 12.4187 50.6743C12.9886 51.2641 13.9614 52.1207 15.4352 52.8091L16.2383 53.1L14.2689 54.7758Z" fill="#C83F51"/>
  <path fill-rule="evenodd" clip-rule="evenodd" d="M73.2414 30.7249C74.254 29.5587 75.2348 28.3232 76.1811 27.0183C65.9335 26.9223 52.9344 14.5432 49.841 11.4424C49.568 11.7493 49.2923 12.0589 49.0299 12.3791C48.6164 12.8834 48.2267 13.3958 47.8503 13.9161C49.8914 16.2083 63.182 30.5381 73.2414 30.7249Z" fill="#C83F51"/>
  <path fill-rule="evenodd" clip-rule="evenodd" d="M97.2913 29.999C99.6955 29.5106 105.225 28.0723 107.709 24.8648C107.542 24.2671 107.353 23.6774 107.165 23.0743C104.125 25.3105 98.9188 26.6527 98.325 26.8048C98.007 27.9042 97.665 28.9689 97.2913 29.999Z" fill="#C83F51"/>
  <path fill-rule="evenodd" clip-rule="evenodd" d="M100.112 21.177C100.045 21.1904 99.7804 21.2197 99.6902 21.217C99.4782 22.3298 99.2476 23.3732 98.9878 24.4325C100.883 23.8748 104.52 22.642 106.399 21.0009C106.139 20.3738 105.861 19.7601 105.567 19.1463C103.518 20.4939 100.499 21.1023 100.112 21.177Z" fill="#C83F51"/>
  <path fill-rule="evenodd" clip-rule="evenodd" d="M41.7537 38.2045C47.5005 44.9745 51.1478 46.741 51.1478 46.741C51.2671 46.7997 51.3679 46.8451 51.4288 46.8744C52.6588 46.3167 54 45.6576 55.4155 44.8944C49.4832 42.4367 43.9326 36.945 41.2952 34.0657C41.2952 35.3653 41.3773 36.6675 41.5258 37.9537C41.5523 37.9804 41.5814 38.0097 41.6133 38.0444C41.6875 38.1298 41.7405 38.1912 41.7537 38.2045Z" fill="#C83F51"/>
  <path fill-rule="evenodd" clip-rule="evenodd" d="M66.2517 62.2636C66.1668 62.2262 65.5598 61.9513 65.4458 61.8873C63.373 62.7305 61.2339 63.4724 59.0762 64.0781C64.0065 66.7386 69.5253 68.1369 75.121 68.1369C82.6755 68.1369 90.0153 65.5938 95.9741 60.9293C78.8532 67.0561 66.8269 62.493 66.2517 62.2636Z" fill="#C83F51"/>
  <path fill-rule="evenodd" clip-rule="evenodd" d="M75.5339 57.2255C75.3404 57.1641 75.1045 57.0947 75.0038 57.0467C72.862 58.3622 70.6248 59.5817 68.3425 60.6304C72.9044 61.8152 84.5887 64.2862 98.6189 57.9059C99.2126 57.5937 99.8515 57.2548 100.061 57.1294C100.395 56.7718 100.933 56.1394 101.248 55.7471C102.009 54.8105 102.722 53.8285 103.38 52.8171C90.4282 61.2895 76.2257 57.3989 75.5339 57.2255Z" fill="#C83F51"/>
  <path fill-rule="evenodd" clip-rule="evenodd" d="M102.139 13.5025C101.721 12.9394 101.275 12.3897 100.817 11.848C100.774 12.6672 100.716 13.4651 100.652 14.2603C101.177 14.0735 101.678 13.82 102.139 13.5025Z" fill="#C83F51"/>
  <path fill-rule="evenodd" clip-rule="evenodd" d="M85.3418 6.09213C85.6334 4.70986 85.8799 3.28223 86.0813 1.81723C82.5798 0.619087 78.89 0 75.1843 0C74.9696 0 74.7443 0.00533695 74.5322 0.00800543C77.2996 2.67381 82.1901 6.62583 85.3418 6.09213Z" fill="#C83F51"/>
  <path fill-rule="evenodd" clip-rule="evenodd" d="M100.069 19.0076C101.183 18.7594 103.33 18.1376 104.56 17.217C104.181 16.5392 103.778 15.8721 103.351 15.2183C102.452 15.8294 101.45 16.2804 100.398 16.5472C100.303 17.3878 100.194 18.207 100.069 19.0076Z" fill="#C83F51"/>
  <path fill-rule="evenodd" clip-rule="evenodd" d="M42.4033 42.6796C42.9971 44.9985 43.8426 47.2614 44.9109 49.4042C45.6796 49.164 46.9864 48.7264 48.6775 48.0513C46.1779 46.7971 43.9752 44.5822 42.4033 42.6796Z" fill="#C83F51"/>
  <path fill-rule="evenodd" clip-rule="evenodd" d="M83.0966 51.0053C81.2994 52.6117 79.3909 54.106 77.4082 55.4669C82.2325 56.2862 91.3138 57.02 100.398 52.3849C102.298 51.4162 103.963 50.3301 105.413 49.2254C105.842 48.3021 106.566 46.7197 106.911 45.767C105.543 46.7597 103.557 48.0246 100.986 49.1026C100.233 49.4175 96.5622 50.9172 91.388 51.3415C89.3178 51.5149 86.4577 51.555 83.0966 51.0053Z" fill="#C83F51"/>
  <path fill-rule="evenodd" clip-rule="evenodd" d="M48.6218 55.2588C49.5045 56.3769 50.4747 57.4523 51.4925 58.4423C56.7993 56.9453 93.0954 45.2574 94.6275 6.20956C93.8694 5.6732 93.098 5.16352 92.3134 4.69653C91.1179 18.231 86.3387 28.2859 80.2739 35.6855C69.1595 49.2521 53.8013 53.9913 48.6218 55.2588Z" fill="#C83F51"/>
  <path fill-rule="evenodd" clip-rule="evenodd" d="M53.3184 60.1208L53.5914 60.3609C54.5218 61.1321 55.4999 61.8633 56.5098 62.5277C63.8814 60.7826 70.8766 57.6258 77.0687 53.2441C91.0724 43.264 98.3618 28.6034 98.7594 9.67056C98.0914 9.01945 97.4022 8.38168 96.6707 7.77594C95.833 21.3958 90.8921 31.7282 84.5543 39.4694C73.6572 52.7504 58.6622 58.429 53.3184 60.1208Z" fill="#C83F51"/>
  <path fill-rule="evenodd" clip-rule="evenodd" d="M96.3954 32.3126C95.783 33.783 95.123 35.1892 94.4153 36.5342C97.1058 35.9818 105.392 33.9351 108.639 29.2359C108.552 28.6061 108.44 27.979 108.316 27.3519C104.183 31.2025 96.7903 32.2673 96.4351 32.3153L96.3954 32.3126Z" fill="#C83F51"/>
  <path fill-rule="evenodd" clip-rule="evenodd" d="M93.2196 38.6796C92.48 39.9391 91.6981 41.1399 90.887 42.2873C94.15 42.3914 103.226 42.0712 108.681 35.0771C108.766 34.9704 108.79 34.9143 108.954 34.7355C108.973 33.887 108.954 33.0384 108.914 32.1898C107.464 33.4814 104.641 35.7522 101.023 37.1185C99.4116 37.7269 97.8742 38.0711 97.6357 38.1218C95.918 38.5008 94.4071 38.6369 93.2196 38.6796Z" fill="#C83F51"/>
  <path fill-rule="evenodd" clip-rule="evenodd" d="M89.4052 44.3207C89.4052 44.3207 89.3866 44.3207 89.376 44.3207C89.156 44.6036 88.936 44.8944 88.7107 45.1693C87.5683 46.5489 86.3463 47.8831 85.0713 49.14C89.1348 49.4122 101.545 49.5242 107.785 41.9057C107.785 41.9057 108.058 41.6042 108.127 41.5322C108.374 40.4007 108.572 39.2506 108.702 38.0978C101.145 45.687 89.9141 44.3954 89.4052 44.3207Z" fill="#C83F51"/>
  <path fill-rule="evenodd" clip-rule="evenodd" d="M45.9258 51.3068C46.3419 52.0219 46.7899 52.7104 47.2564 53.3935C52.8812 52.1607 87.3643 43.0132 90.28 3.59444C89.5696 3.23686 88.8354 2.87929 88.1011 2.58575C86.3517 14.6446 81.5619 23.9442 75.7621 31.0264C64.8041 44.4168 50.2517 49.9085 45.9258 51.3068Z" fill="#C83F51"/>
  <path fill-rule="evenodd" clip-rule="evenodd" d="M83.5951 11.0716C83.6958 11.0902 83.7966 11.1036 83.7966 11.1036C83.8946 11.1169 83.9795 11.1249 84.0484 11.1303C84.3373 10.1936 84.6024 9.23831 84.8463 8.26699C79.5343 8.33904 72.8492 1.40901 71.7147 0.189514C70.2488 0.33628 68.7883 0.589785 67.3569 0.923345C70.2648 3.73592 72.8571 5.76396 74.7815 7.14356C74.7815 7.14356 77.8749 9.35839 80.3454 10.2283C81.4746 10.6286 83.4732 11.0502 83.5951 11.0716Z" fill="#C83F51"/>
  <path fill-rule="evenodd" clip-rule="evenodd" d="M61.7031 2.79657C63.8741 5.32095 72.1575 14.191 82.4369 15.6826C82.7736 14.8474 83.0917 13.9935 83.3938 13.1182C76.3032 12.6593 67.0814 3.68518 64.9953 1.56641C63.882 1.91865 62.774 2.33226 61.7031 2.79657Z" fill="#C83F51"/>
  <path fill-rule="evenodd" clip-rule="evenodd" d="M80.3848 20.187C80.74 19.4719 81.233 18.4739 81.5723 17.7133C69.994 15.7574 61.2467 5.63315 59.712 3.73053C58.3866 4.41099 57.0957 5.19285 55.8711 6.04677C57.6365 7.7706 67.6826 17.1183 75.7302 19.3598C77.3975 19.8241 79.9289 20.187 80.3848 20.187Z" fill="#C83F51"/>
  <path fill-rule="evenodd" clip-rule="evenodd" d="M54.1349 7.32764C53.1436 8.12017 52.1867 8.98476 51.2881 9.88938C54.2171 12.8114 67.4839 25.6868 76.9045 25.0917C77.0688 25.089 77.3233 25.0677 77.5433 25.0463C78.2192 24.0243 78.866 22.9516 79.4863 21.8468C69.5859 22.6047 55.2032 8.39503 54.1349 7.32764Z" fill="#C83F51"/>
  <path fill-rule="evenodd" clip-rule="evenodd" d="M60.2635 39.3173C60.3828 39.368 60.9447 39.6055 61.6312 39.891C62.0739 40.0752 62.4424 40.2273 62.6889 40.326C63.9506 39.4187 65.2256 38.4367 66.49 37.372C56.4809 35.1465 46.9967 24.9609 43.7788 21.1957C43.3467 22.2711 42.9597 23.3838 42.6416 24.4966C44.2956 26.9462 46.5965 29.8042 49.7243 32.5474C49.7243 32.5474 53.0244 35.4427 57.125 37.7376C57.2973 37.8363 58.9302 38.7489 60.2635 39.3173Z" fill="#C83F51"/>
  <path fill-rule="evenodd" clip-rule="evenodd" d="M60.5365 41.8204C52.7965 39.8617 45.0114 30.9304 42.0001 27.1438C41.7404 28.414 41.5495 29.7055 41.4355 30.9971C43.193 33.2439 44.9 34.9784 46.289 36.2566C46.289 36.2566 50.3631 40.0005 55.479 42.7277C55.9853 42.9972 56.473 43.232 56.473 43.232C56.8759 43.4242 57.2285 43.5789 57.4988 43.6937C58.4902 43.1226 59.5028 42.4982 60.5365 41.8204Z" fill="#C83F51"/>
  <path fill-rule="evenodd" clip-rule="evenodd" d="M68.3113 35.5894C68.367 35.6001 68.3882 35.5974 68.4915 35.6135C69.4909 34.6982 70.4769 33.7268 71.4497 32.6995C61.2472 31.2025 49.4834 18.8954 46.6047 15.728C45.9288 16.7927 45.2952 17.9134 44.7439 19.0529C47.0474 21.8228 57.8092 34.1965 68.3113 35.5894Z" fill="#C83F51"/>
</svg>
