<svg width="36" height="34" viewBox="0 0 36 34" fill="none"
  xmlns="http://www.w3.org/2000/svg">
  <path fill-rule="evenodd" clip-rule="evenodd" d="M16.2273 19.5077C16.7969 19.4606 17.3756 19.4359 17.9618 19.4348C17.9745 19.4348 17.9872 19.4348 17.9999 19.4348C18.5811 19.4348 19.1551 19.4581 19.7201 19.5034C25.6799 19.9815 30.6532 22.9155 32.7834 26.9209C33.9641 29.141 31.8589 31.2886 29.3443 31.2886H6.65554C4.14099 31.2886 2.03573 29.141 3.21647 26.9209C5.34043 22.9273 10.2908 19.9988 16.2273 19.5077ZM12.2969 17.8648C9.77712 16.085 8.13167 13.1497 8.13167 9.83011C8.13167 4.40109 12.5328 0 17.9618 0C23.3908 0 27.7919 4.40109 27.7919 9.83011C27.7919 13.1409 26.1552 16.0693 23.6468 17.8505C28.5866 19.0954 32.7183 21.9504 34.7933 25.852C35.8703 27.8769 35.4123 29.9684 34.1833 31.4126C33.0243 32.7746 31.2157 33.5651 29.3443 33.5651H6.65554C4.78415 33.5651 2.97551 32.7746 1.81655 31.4126C0.587556 29.9684 0.129578 27.8769 1.20654 25.852C3.27367 21.9652 7.3819 19.1171 12.2969 17.8648ZM16.3656 17.2148C12.9605 16.4822 10.4082 13.4542 10.4082 9.83011C10.4082 5.65837 13.79 2.2765 17.9618 2.2765C22.1335 2.2765 25.5154 5.65837 25.5154 9.83011C25.5154 13.4478 22.9722 16.4714 19.5762 17.2108C19.068 17.3215 18.5407 17.3809 17.9999 17.3836C17.9872 17.3837 17.9745 17.3837 17.9618 17.3837C17.4142 17.3837 16.8802 17.3254 16.3656 17.2148Z" fill="black"/>
</svg>
