<svg width="22" height="21" viewBox="0 0 22 21" fill="none"
  xmlns="http://www.w3.org/2000/svg">
  <path d="M20.9846 6.88331C20.9839 6.66245 20.9396 6.44389 20.8541 6.24025C20.7685 6.03662 20.6435 5.85194 20.4863 5.69686L16.1616 1.33664C15.8417 1.03199 15.4169 0.862061 14.9752 0.862061C14.5334 0.862061 14.1086 1.03199 13.7887 1.33664L1.53266 13.5749C1.21967 13.8905 1.04404 14.3169 1.04404 14.7614C1.04404 15.2058 1.21967 15.6323 1.53266 15.9478L4.32083 18.7479H1.63351C1.47618 18.7479 1.32529 18.8104 1.21404 18.9216C1.10278 19.0329 1.04028 19.1837 1.04028 19.3411C1.04028 19.4984 1.10278 19.6493 1.21404 19.7606C1.32529 19.8718 1.47618 19.9343 1.63351 19.9343H16.4642C16.6215 19.9343 16.7724 19.8718 16.8837 19.7606C16.9949 19.6493 17.0574 19.4984 17.0574 19.3411C17.0574 19.1837 16.9949 19.0329 16.8837 18.9216C16.7724 18.8104 16.6215 18.7479 16.4642 18.7479H9.78445L20.4625 8.06977C20.6241 7.91668 20.7535 7.73288 20.8431 7.52916C20.9328 7.32543 20.9809 7.10586 20.9846 6.88331ZM19.6498 7.20366L11.5167 15.3368L6.48611 10.3003L14.6133 2.17309C14.7083 2.08209 14.8347 2.03128 14.9663 2.03128C15.0978 2.03128 15.2243 2.08209 15.3193 2.17309L19.6498 6.49772C19.7439 6.59239 19.7971 6.72017 19.7981 6.85365C19.7982 6.91896 19.785 6.98361 19.7596 7.04374C19.7341 7.10387 19.6968 7.15826 19.6498 7.20366Z" fill="black"/>
  <path d="M2.37504 14.4173C2.32859 14.4636 2.29173 14.5186 2.26658 14.5792C2.24143 14.6397 2.22848 14.7047 2.22848 14.7703C2.22848 14.8358 2.24143 14.9008 2.26658 14.9614C2.29173 15.0219 2.32859 15.0769 2.37504 15.1232L5.99966 18.7478H8.10561L10.6802 16.1732M20.9846 6.88331C20.9839 6.66245 20.9396 6.44389 20.8541 6.24025C20.7685 6.03662 20.6435 5.85194 20.4863 5.69686L16.1616 1.33664C15.8417 1.03199 15.4169 0.862061 14.9752 0.862061C14.5334 0.862061 14.1086 1.03199 13.7887 1.33664L1.53266 13.5749C1.21967 13.8905 1.04404 14.3169 1.04404 14.7614C1.04404 15.2058 1.21967 15.6323 1.53266 15.9478L4.32083 18.7478H1.63351C1.47618 18.7478 1.32529 18.8103 1.21404 18.9216C1.10278 19.0329 1.04028 19.1837 1.04028 19.3411C1.04028 19.4984 1.10278 19.6493 1.21404 19.7606C1.32529 19.8718 1.47618 19.9343 1.63351 19.9343H16.4642C16.6215 19.9343 16.7724 19.8718 16.8837 19.7606C16.9949 19.6493 17.0574 19.4984 17.0574 19.3411C17.0574 19.1837 16.9949 19.0329 16.8837 18.9216C16.7724 18.8103 16.6215 18.7478 16.4642 18.7478H9.78445L20.4625 8.06977C20.6241 7.91668 20.7535 7.73288 20.8431 7.52916C20.9328 7.32543 20.9809 7.10586 20.9846 6.88331ZM19.6498 7.20366L11.5167 15.3368L6.48611 10.3003L14.6133 2.17309C14.7083 2.08209 14.8347 2.03128 14.9663 2.03128C15.0978 2.03128 15.2243 2.08209 15.3193 2.17309L19.6498 6.49772C19.7439 6.59239 19.7971 6.72017 19.7981 6.85365C19.7982 6.91896 19.785 6.98361 19.7596 7.04374C19.7341 7.10387 19.6968 7.15826 19.6498 7.20366Z" stroke="black" stroke-width="0.5"/>
</svg>
