<svg width="24" height="23" viewBox="0 0 24 23" fill="none"
  xmlns="http://www.w3.org/2000/svg">
  <g clip-path="url(#clip0)">
    <path d="M20.2897 6.13164C20.2916 5.80706 20.2109 5.48733 20.0551 5.20256C19.8993 4.91779 19.6736 4.67735 19.3993 4.50389C19.1249 4.33042 18.811 4.22963 18.4869 4.21101C18.1629 4.1924 17.8394 4.25656 17.547 4.39746C17.5277 4.07059 17.4268 3.75375 17.2537 3.47584C17.0805 3.19793 16.8406 2.96778 16.5557 2.80637C16.2708 2.64497 15.95 2.55745 15.6226 2.55179C15.2952 2.54614 14.9716 2.62252 14.6813 2.77398C14.6485 2.30392 14.4528 1.86003 14.1277 1.5189C13.8027 1.17777 13.3687 0.960784 12.9008 0.90539C12.4329 0.849997 11.9603 0.959666 11.5646 1.21548C11.1689 1.47129 10.8749 1.85719 10.7333 2.30661C10.4249 2.12165 10.0721 2.02388 9.71244 2.02373C9.44785 2.02454 9.18601 2.07755 8.94194 2.17974C8.69787 2.28193 8.47637 2.43128 8.29013 2.61923C8.10389 2.80719 7.95658 3.03005 7.85663 3.27504C7.75668 3.52004 7.70607 3.78235 7.70769 4.04694V11.8323C6.92054 10.8484 6.15185 9.87672 6.03501 9.71068C5.85716 9.42828 5.61021 9.19592 5.31751 9.03559C5.02482 8.87525 4.69606 8.79223 4.36233 8.7944C4.07926 8.78584 3.79744 8.83539 3.53426 8.93999C3.27109 9.04459 3.03214 9.20201 2.83218 9.40255C2.63222 9.60309 2.47548 9.84249 2.37164 10.106C2.2678 10.3694 2.21906 10.6514 2.22843 10.9344C2.28378 12.0414 4.42382 15.9525 5.86282 18.0802C8.03976 21.3026 10.1183 21.77 10.2106 21.77H16.6799C16.8023 21.7686 16.921 21.7276 17.0181 21.6531C18.1224 20.6355 18.921 19.33 19.3242 17.8834C19.9392 15.9832 20.2651 13.2528 20.2958 9.54464L20.2897 6.13164ZM18.2726 17.5391C17.9273 18.7095 17.3075 19.7805 16.4647 20.663H10.3704C10.0814 20.577 8.48253 19.9866 6.76065 17.4345C5.03878 14.8825 3.3661 11.4818 3.33535 10.8791C3.3304 10.7504 3.35246 10.622 3.40012 10.5023C3.44778 10.3827 3.51999 10.2743 3.61208 10.1842C3.70279 10.0908 3.81201 10.0174 3.93273 9.96873C4.05345 9.92001 4.18302 9.89705 4.31313 9.90132C4.47558 9.89186 4.63748 9.92767 4.78079 10.0048C4.9241 10.0818 5.04321 10.1972 5.12487 10.3379C5.30321 10.6024 6.57617 12.1828 7.32026 13.1237L8.81461 12.1152V4.04694C8.80427 3.92154 8.82005 3.79537 8.86095 3.67638C8.90184 3.55739 8.96696 3.44817 9.0522 3.35562C9.13743 3.26307 9.24094 3.1892 9.35616 3.13867C9.47139 3.08814 9.59585 3.06205 9.72167 3.06205C9.84749 3.06205 9.97194 3.08814 10.0872 3.13867C10.2024 3.1892 10.3059 3.26307 10.3911 3.35562C10.4764 3.44817 10.5415 3.55739 10.5824 3.67638C10.6233 3.79537 10.6391 3.92154 10.6287 4.04694V10.8975H11.7356V2.90312C11.7618 2.67683 11.8703 2.46805 12.0403 2.31651C12.2104 2.16496 12.4303 2.08123 12.6581 2.08123C12.8859 2.08123 13.1057 2.16496 13.2758 2.31651C13.4459 2.46805 13.5543 2.67683 13.5805 2.90312V10.9775H14.6874V4.5512C14.6773 4.42995 14.6924 4.30791 14.7318 4.1928C14.7712 4.07769 14.8341 3.97201 14.9165 3.88245C14.9988 3.79289 15.0989 3.7214 15.2103 3.6725C15.3217 3.62359 15.4421 3.59834 15.5637 3.59834C15.6854 3.59834 15.8058 3.62359 15.9172 3.6725C16.0286 3.7214 16.1287 3.79289 16.211 3.88245C16.2934 3.97201 16.3563 4.07769 16.3957 4.1928C16.4351 4.30791 16.4502 4.42995 16.4401 4.5512V11.5863H17.547V6.11319C17.5647 5.90931 17.6582 5.71948 17.8091 5.58118C17.9599 5.44288 18.1571 5.36615 18.3618 5.36615C18.5665 5.36615 18.7637 5.44288 18.9145 5.58118C19.0654 5.71948 19.1589 5.90931 19.1766 6.11319V9.5262C19.1582 13.1606 18.863 15.7495 18.2726 17.5391Z" fill="black" stroke="black" stroke-width="0.5"/>
  </g>
  <defs>
    <clipPath id="clip0">
      <rect width="22.1384" height="22.1384" fill="white" transform="translate(0.943115 0.861572)"/>
    </clipPath>
  </defs>
</svg>
