<svg width="21" height="16" viewBox="0 0 21 16" fill="none"
  xmlns="http://www.w3.org/2000/svg">
  <path d="M0.594942 2.28564L10.5304 14.7412L20.4658 2.28565" stroke="black" stroke-linejoin="round"/>
  <path d="M10.2663 0.217234C10.7463 0.217234 11.1663 0.313234 11.5263 0.505234C11.8943 0.697234 12.1783 0.961234 12.3783 1.29723C12.5783 1.62523 12.6783 1.99723 12.6783 2.41323C12.6783 2.90123 12.5663 3.36923 12.3423 3.81723C12.1263 4.26523 11.7903 4.74923 11.3343 5.26923C10.8783 5.78923 10.1863 6.51323 9.25827 7.44123H12.8703L12.7383 8.36523H7.99827V7.48923C9.07027 6.37723 9.83027 5.56523 10.2783 5.05323C10.7263 4.53323 11.0463 4.08123 11.2383 3.69723C11.4303 3.31323 11.5263 2.90123 11.5263 2.46123C11.5263 2.04523 11.4063 1.72123 11.1663 1.48923C10.9263 1.24923 10.6063 1.12923 10.2063 1.12923C9.87827 1.12923 9.59027 1.19723 9.34227 1.33323C9.09427 1.46923 8.83027 1.69323 8.55027 2.00523L7.83027 1.42923C8.15827 1.02123 8.52227 0.717234 8.92227 0.517234C9.32227 0.317234 9.77027 0.217234 10.2663 0.217234Z" fill="black"/>
</svg>
