<svg width="21" height="17" viewBox="0 0 21 17" fill="none"
  xmlns="http://www.w3.org/2000/svg">
  <path d="M0.564425 3.05789L10.4999 15.5135L20.4353 3.05789" stroke="black" stroke-linejoin="round"/>
  <path d="M10.236 0.989207C10.716 0.989207 11.136 1.08521 11.496 1.27721C11.864 1.46921 12.148 1.73321 12.348 2.06921C12.548 2.39721 12.648 2.76921 12.648 3.18521C12.648 3.67321 12.536 4.14121 12.312 4.58921C12.096 5.03721 11.76 5.52121 11.304 6.04121C10.848 6.56121 10.156 7.28521 9.228 8.21321H12.84L12.708 9.13721H7.968V8.26121C9.04 7.14921 9.8 6.33721 10.248 5.82521C10.696 5.30521 11.016 4.85321 11.208 4.46921C11.4 4.08521 11.496 3.67321 11.496 3.23321C11.496 2.81721 11.376 2.49321 11.136 2.26121C10.896 2.02121 10.576 1.90121 10.176 1.90121C9.848 1.90121 9.56 1.96921 9.312 2.10521C9.064 2.24121 8.8 2.46521 8.52 2.77721L7.8 2.20121C8.128 1.79321 8.492 1.48921 8.892 1.28921C9.292 1.08921 9.74 0.989207 10.236 0.989207Z" fill="black"/>
</svg>
