<svg width="13" height="14" viewBox="0 0 13 14" fill="none"
  xmlns="http://www.w3.org/2000/svg">
  <path d="M1.67285 13.1152V5.97297C1.67285 3.29011 3.84773 1.11523 6.53058 1.11523C9.21343 1.11523 11.3883 3.29011 11.3883 5.97296V13.1152" stroke="black" stroke-width="2"/>
  <path d="M6.5817 5.80903C7.0617 5.80903 7.4817 5.90503 7.8417 6.09703C8.2097 6.28903 8.4937 6.55303 8.6937 6.88903C8.8937 7.21703 8.9937 7.58903 8.9937 8.00503C8.9937 8.49303 8.8817 8.96103 8.6577 9.40903C8.4417 9.85703 8.1057 10.341 7.6497 10.861C7.1937 11.381 6.5017 12.105 5.5737 13.033H9.1857L9.0537 13.957H4.3137V13.081C5.3857 11.969 6.1457 11.157 6.5937 10.645C7.0417 10.125 7.3617 9.67303 7.5537 9.28903C7.7457 8.90503 7.8417 8.49303 7.8417 8.05303C7.8417 7.63703 7.7217 7.31303 7.4817 7.08103C7.2417 6.84103 6.9217 6.72103 6.5217 6.72103C6.1937 6.72103 5.9057 6.78903 5.6577 6.92503C5.4097 7.06103 5.1457 7.28503 4.8657 7.59703L4.1457 7.02103C4.4737 6.61303 4.8377 6.30903 5.2377 6.10903C5.6377 5.90903 6.0857 5.80903 6.5817 5.80903Z" fill="black"/>
</svg>
