<svg width="21" height="16" viewBox="0 0 21 16" fill="none"
  xmlns="http://www.w3.org/2000/svg">
  <path d="M0.442843 2.43478L10.3783 14.8903L20.3137 2.43478" stroke="black" stroke-linejoin="round"/>
  <path d="M10.0784 0.366099C10.5744 0.366099 10.9984 0.458099 11.3504 0.642099C11.7104 0.826099 11.9824 1.0741 12.1664 1.3861C12.3584 1.6981 12.4544 2.0381 12.4544 2.4061C12.4544 2.8941 12.3104 3.2981 12.0224 3.6181C11.7424 3.9301 11.3664 4.1421 10.8944 4.2541C11.4304 4.3021 11.8664 4.4941 12.2024 4.8301C12.5384 5.1661 12.7064 5.6221 12.7064 6.1981C12.7064 6.6621 12.5944 7.0821 12.3704 7.4581C12.1464 7.8341 11.8264 8.1301 11.4104 8.3461C10.9944 8.5541 10.5144 8.6581 9.97042 8.6581C9.48242 8.6581 9.03442 8.5701 8.62642 8.3941C8.21842 8.2101 7.86242 7.9381 7.55842 7.5781L8.21842 6.9661C8.48242 7.2381 8.75042 7.4381 9.02242 7.5661C9.30242 7.6941 9.60642 7.7581 9.93442 7.7581C10.4384 7.7581 10.8344 7.6181 11.1224 7.3381C11.4104 7.0501 11.5544 6.6661 11.5544 6.1861C11.5544 5.6581 11.4184 5.2861 11.1464 5.0701C10.8744 4.8541 10.4784 4.7461 9.95842 4.7461H9.35842L9.49042 3.8941H9.89842C10.3144 3.8941 10.6584 3.7701 10.9304 3.5221C11.2104 3.2741 11.3504 2.9261 11.3504 2.4781C11.3504 2.1021 11.2304 1.8061 10.9904 1.5901C10.7504 1.3661 10.4264 1.2541 10.0184 1.2541C9.70642 1.2541 9.41842 1.3101 9.15442 1.4221C8.89842 1.5341 8.63442 1.7181 8.36242 1.9741L7.78642 1.3141C8.46642 0.682099 9.23042 0.366099 10.0784 0.366099Z" fill="black"/>
</svg>
