<svg width="21" height="15" viewBox="0 0 21 15" fill="none"
  xmlns="http://www.w3.org/2000/svg">
  <path d="M0.442843 2.00473L10.3783 14.4603L20.3137 2.00473" stroke="black" stroke-linejoin="round"/>
  <path d="M12.4184 0.920045H9.28642V3.28405C9.69442 3.07605 10.1224 2.97205 10.5704 2.97205C11.2584 2.97205 11.8104 3.20005 12.2264 3.65605C12.6424 4.10405 12.8504 4.72405 12.8504 5.51605C12.8504 6.04405 12.7344 6.51605 12.5024 6.93205C12.2704 7.34005 11.9424 7.66005 11.5184 7.89205C11.1024 8.11605 10.6184 8.22805 10.0664 8.22805C9.57842 8.22805 9.14242 8.14405 8.75842 7.97605C8.37442 7.80005 8.01842 7.54405 7.69042 7.20805L8.33842 6.57205C8.59442 6.82805 8.85842 7.02005 9.13042 7.14805C9.40242 7.26805 9.71042 7.32805 10.0544 7.32805C10.5664 7.32805 10.9664 7.16805 11.2544 6.84805C11.5504 6.52805 11.6984 6.07605 11.6984 5.49205C11.6984 4.90805 11.5664 4.48405 11.3024 4.22005C11.0384 3.95605 10.6824 3.82405 10.2344 3.82405C10.0264 3.82405 9.83442 3.84805 9.65842 3.89605C9.48242 3.93605 9.29442 4.00405 9.09442 4.10005H8.23042V0.0560451H12.5744L12.4184 0.920045Z" fill="black"/>
</svg>
