<svg width="21" height="16" viewBox="0 0 21 16" fill="none"
  xmlns="http://www.w3.org/2000/svg">
  <path d="M0.442843 2.93545L10.3783 15.391L20.3137 2.93546" stroke="black" stroke-linejoin="round"/>
  <path d="M11.0744 3.73477C11.4824 3.73477 11.8544 3.83077 12.1904 4.02277C12.5264 4.21477 12.7944 4.50277 12.9944 4.88677C13.1944 5.27077 13.2944 5.73877 13.2944 6.29077C13.2944 6.85877 13.1784 7.36277 12.9464 7.80277C12.7224 8.23477 12.4144 8.57077 12.0224 8.81077C11.6384 9.04277 11.2104 9.15877 10.7384 9.15877C9.80242 9.15877 9.11842 8.81477 8.68642 8.12677C8.25442 7.43077 8.03842 6.47077 8.03842 5.24677C8.03842 4.37477 8.15842 3.61077 8.39842 2.95477C8.64642 2.29077 8.99842 1.77877 9.45442 1.41877C9.91042 1.05077 10.4504 0.86677 11.0744 0.86677C11.6824 0.86677 12.2344 1.03077 12.7304 1.35877L12.2984 2.09077C11.9224 1.85877 11.5104 1.74277 11.0624 1.74277C10.4864 1.74277 10.0304 2.01877 9.69442 2.57077C9.35842 3.12277 9.17442 3.86277 9.14242 4.79077C9.63842 4.08677 10.2824 3.73477 11.0744 3.73477ZM10.7384 8.28277C11.2024 8.28277 11.5584 8.10677 11.8064 7.75477C12.0544 7.40277 12.1784 6.92677 12.1784 6.32677C12.1784 5.18277 11.7464 4.61077 10.8824 4.61077C10.5304 4.61077 10.2064 4.71077 9.91042 4.91077C9.61442 5.10277 9.36242 5.37077 9.15442 5.71477C9.17842 6.59477 9.31442 7.24277 9.56242 7.65877C9.81842 8.07477 10.2104 8.28277 10.7384 8.28277Z" fill="black"/>
</svg>
