<svg width="14" height="12" viewBox="0 0 14 12" fill="none"
  xmlns="http://www.w3.org/2000/svg">
  <path d="M0.48584 0.737226V11.5212H1.87784V0.737226H0.48584Z" fill="black"/>
  <path d="M4.31396 11.4892C5.01796 11.5692 5.84997 11.6172 6.84197 11.6172C8.93797 11.6172 10.602 11.0732 11.61 10.0652C12.618 9.07323 13.162 7.63323 13.162 5.87323C13.162 4.12923 12.602 2.88123 11.642 2.00123C10.698 1.12123 9.27397 0.657227 7.27397 0.657227C6.16997 0.657227 5.16196 0.753226 4.31396 0.881227V11.4892ZM5.70596 1.90523C6.07396 1.82523 6.61796 1.76123 7.33796 1.76123C10.282 1.76123 11.722 3.37723 11.706 5.92123C11.706 8.83323 10.09 10.4972 7.11397 10.4972C6.56996 10.4972 6.05796 10.4812 5.70596 10.4172V1.90523Z" fill="black"/>
</svg>
