<svg width="21" height="16" viewBox="0 0 21 16" fill="none"
  xmlns="http://www.w3.org/2000/svg">
  <path d="M0.594942 2.28564L10.5304 14.7412L20.4658 2.28565" stroke="black" stroke-linejoin="round"/>
  <path d="M10.2303 0.217234C10.7263 0.217234 11.1503 0.309234 11.5023 0.493234C11.8623 0.677234 12.1343 0.925234 12.3183 1.23723C12.5103 1.54923 12.6063 1.88923 12.6063 2.25723C12.6063 2.74523 12.4623 3.14923 12.1743 3.46923C11.8943 3.78123 11.5183 3.99323 11.0463 4.10523C11.5823 4.15323 12.0183 4.34523 12.3543 4.68123C12.6903 5.01723 12.8583 5.47323 12.8583 6.04923C12.8583 6.51323 12.7463 6.93323 12.5223 7.30923C12.2983 7.68523 11.9783 7.98123 11.5623 8.19723C11.1463 8.40523 10.6663 8.50923 10.1223 8.50923C9.63427 8.50923 9.18627 8.42123 8.77827 8.24523C8.37027 8.06123 8.01427 7.78923 7.71027 7.42923L8.37027 6.81723C8.63427 7.08923 8.90227 7.28923 9.17427 7.41723C9.45427 7.54523 9.75827 7.60923 10.0863 7.60923C10.5903 7.60923 10.9863 7.46923 11.2743 7.18923C11.5623 6.90123 11.7063 6.51723 11.7063 6.03723C11.7063 5.50923 11.5703 5.13723 11.2983 4.92123C11.0263 4.70523 10.6303 4.59723 10.1103 4.59723H9.51027L9.64227 3.74523H10.0503C10.4663 3.74523 10.8103 3.62123 11.0823 3.37323C11.3623 3.12523 11.5023 2.77723 11.5023 2.32923C11.5023 1.95323 11.3823 1.65723 11.1423 1.44123C10.9023 1.21723 10.5783 1.10523 10.1703 1.10523C9.85827 1.10523 9.57027 1.16123 9.30627 1.27323C9.05027 1.38523 8.78627 1.56923 8.51427 1.82523L7.93827 1.16523C8.61827 0.533234 9.38227 0.217234 10.2303 0.217234Z" fill="black"/>
</svg>
