<svg width="13" height="12" viewBox="0 0 13 12" fill="none"
  xmlns="http://www.w3.org/2000/svg">
  <path d="M0.192383 0.580976V11.365H1.58438V0.580976H0.192383Z" fill="black"/>
  <path d="M4.02051 11.333C4.72451 11.413 5.55651 11.461 6.54851 11.461C8.64451 11.461 10.3085 10.917 11.3165 9.90898C12.3245 8.91698 12.8685 7.47698 12.8685 5.71698C12.8685 3.97298 12.3085 2.72498 11.3485 1.84498C10.4045 0.964976 8.98051 0.500977 6.98051 0.500977C5.87651 0.500977 4.86851 0.596976 4.02051 0.724977V11.333ZM5.41251 1.74898C5.78051 1.66898 6.32451 1.60498 7.04451 1.60498C9.98851 1.60498 11.4285 3.22098 11.4125 5.76498C11.4125 8.67698 9.79651 10.341 6.82051 10.341C6.27651 10.341 5.76451 10.325 5.41251 10.261V1.74898Z" fill="black"/>
</svg>
