<svg width="13" height="12" viewBox="0 0 13 12" fill="none"
  xmlns="http://www.w3.org/2000/svg">
  <path d="M12.8682 0.580976V11.365H11.4762V0.580976H12.8682Z" fill="black"/>
  <path d="M9.04004 11.333C8.33604 11.413 7.50404 11.461 6.51204 11.461C4.41604 11.461 2.75204 10.917 1.74404 9.90898C0.736039 8.91698 0.192039 7.47698 0.192039 5.71698C0.192039 3.97298 0.752038 2.72498 1.71204 1.84498C2.65604 0.964976 4.08004 0.500977 6.08004 0.500977C7.18404 0.500977 8.19204 0.596976 9.04004 0.724977V11.333ZM7.64804 1.74898C7.28004 1.66898 6.73604 1.60498 6.01604 1.60498C3.07204 1.60498 1.63204 3.22098 1.64804 5.76498C1.64804 8.67698 3.26404 10.341 6.24004 10.341C6.78404 10.341 7.29604 10.325 7.64804 10.261V1.74898Z" fill="black"/>
</svg>
