<svg width="12" height="14" viewBox="0 0 12 14" fill="none"
  xmlns="http://www.w3.org/2000/svg">
  <path d="M0.804199 13.2641V6.12183C0.804199 3.43898 2.97908 1.2641 5.66193 1.2641C8.34478 1.2641 10.5197 3.43898 10.5197 6.12183V13.2641" stroke="black"/>
  <path d="M5.39811 5.11598C5.87811 5.11598 6.29811 5.21198 6.65811 5.40398C7.02611 5.59598 7.31011 5.85998 7.51011 6.19598C7.71011 6.52398 7.81011 6.89598 7.81011 7.31198C7.81011 7.79998 7.69811 8.26798 7.47411 8.71598C7.25811 9.16398 6.92211 9.64798 6.46611 10.168C6.01011 10.688 5.31811 11.412 4.39011 12.34H8.00211L7.87011 13.264H3.13011V12.388C4.20211 11.276 4.96211 10.464 5.41011 9.95198C5.85811 9.43198 6.17811 8.97998 6.37011 8.59598C6.56211 8.21198 6.65811 7.79998 6.65811 7.35998C6.65811 6.94398 6.53811 6.61998 6.29811 6.38798C6.05811 6.14798 5.73811 6.02798 5.33811 6.02798C5.01011 6.02798 4.72211 6.09598 4.47411 6.23198C4.22611 6.36798 3.96211 6.59198 3.68211 6.90398L2.96211 6.32798C3.29011 5.91998 3.65411 5.61598 4.05411 5.41598C4.45411 5.21598 4.90211 5.11598 5.39811 5.11598Z" fill="black"/>
</svg>
