<svg width="12" height="14" viewBox="0 0 12 14" fill="none"
  xmlns="http://www.w3.org/2000/svg">
  <path d="M0.804199 13.2641V6.12183C0.804199 3.43898 2.97908 1.2641 5.66193 1.2641C8.34478 1.2641 10.5197 3.43898 10.5197 6.12183V13.2641" stroke="black"/>
  <path d="M5.36211 5.1161C5.85811 5.1161 6.28211 5.2081 6.63411 5.3921C6.99411 5.5761 7.26611 5.8241 7.45011 6.1361C7.64211 6.4481 7.73811 6.7881 7.73811 7.1561C7.73811 7.6441 7.59411 8.0481 7.30611 8.3681C7.02611 8.6801 6.65011 8.8921 6.17811 9.0041C6.71411 9.0521 7.15011 9.2441 7.48611 9.5801C7.82211 9.9161 7.99011 10.3721 7.99011 10.9481C7.99011 11.4121 7.87811 11.8321 7.65411 12.2081C7.43011 12.5841 7.11011 12.8801 6.69411 13.0961C6.27811 13.3041 5.79811 13.4081 5.25411 13.4081C4.76611 13.4081 4.31811 13.3201 3.91011 13.1441C3.50211 12.9601 3.14611 12.6881 2.84211 12.3281L3.50211 11.7161C3.76611 11.9881 4.03411 12.1881 4.30611 12.3161C4.58611 12.4441 4.89011 12.5081 5.21811 12.5081C5.72211 12.5081 6.11811 12.3681 6.40611 12.0881C6.69411 11.8001 6.83811 11.4161 6.83811 10.9361C6.83811 10.4081 6.70211 10.0361 6.43011 9.8201C6.15811 9.6041 5.76211 9.4961 5.24211 9.4961H4.64211L4.77411 8.6441H5.18211C5.59811 8.6441 5.94211 8.5201 6.21411 8.2721C6.49411 8.0241 6.63411 7.6761 6.63411 7.2281C6.63411 6.8521 6.51411 6.5561 6.27411 6.3401C6.03411 6.1161 5.71011 6.0041 5.30211 6.0041C4.99011 6.0041 4.70211 6.0601 4.43811 6.1721C4.18211 6.2841 3.91811 6.4681 3.64611 6.7241L3.07011 6.0641C3.75011 5.4321 4.51411 5.1161 5.36211 5.1161Z" fill="black"/>
</svg>
