<svg width="12" height="14" viewBox="0 0 12 14" fill="none"
  xmlns="http://www.w3.org/2000/svg">
  <path d="M0.804199 13.2641V6.12183C0.804199 3.43898 2.97908 1.2641 5.66193 1.2641C8.34478 1.2641 10.5197 3.43898 10.5197 6.12183V13.2641" stroke="black"/>
  <path d="M7.70211 6.1001H4.57011V8.4641C4.97811 8.2561 5.40611 8.1521 5.85411 8.1521C6.54211 8.1521 7.09411 8.3801 7.51011 8.8361C7.92611 9.2841 8.13411 9.9041 8.13411 10.6961C8.13411 11.2241 8.01811 11.6961 7.78611 12.1121C7.55411 12.5201 7.22611 12.8401 6.80211 13.0721C6.38611 13.2961 5.90211 13.4081 5.35011 13.4081C4.86211 13.4081 4.42611 13.3241 4.04211 13.1561C3.65811 12.9801 3.30211 12.7241 2.97411 12.3881L3.62211 11.7521C3.87811 12.0081 4.14211 12.2001 4.41411 12.3281C4.68611 12.4481 4.99411 12.5081 5.33811 12.5081C5.85011 12.5081 6.25011 12.3481 6.53811 12.0281C6.83411 11.7081 6.98211 11.2561 6.98211 10.6721C6.98211 10.0881 6.85011 9.6641 6.58611 9.4001C6.32211 9.1361 5.96611 9.0041 5.51811 9.0041C5.31011 9.0041 5.11811 9.0281 4.94211 9.0761C4.76611 9.1161 4.57811 9.1841 4.37811 9.2801H3.51411V5.2361H7.85811L7.70211 6.1001Z" fill="black"/>
</svg>
