<svg width="12" height="14" viewBox="0 0 12 14" fill="none"
  xmlns="http://www.w3.org/2000/svg">
  <path d="M0.804199 13.2641V6.12183C0.804199 3.43898 2.97908 1.2641 5.66193 1.2641C8.34478 1.2641 10.5197 3.43898 10.5197 6.12183V13.2641" stroke="black"/>
  <path d="M5.84834 7.9841C6.25634 7.9841 6.62834 8.0801 6.96434 8.2721C7.30034 8.4641 7.56834 8.7521 7.76834 9.1361C7.96834 9.5201 8.06834 9.9881 8.06834 10.5401C8.06834 11.1081 7.95234 11.6121 7.72034 12.0521C7.49634 12.4841 7.18834 12.8201 6.79634 13.0601C6.41234 13.2921 5.98434 13.4081 5.51234 13.4081C4.57634 13.4081 3.89234 13.0641 3.46034 12.3761C3.02834 11.6801 2.81234 10.7201 2.81234 9.4961C2.81234 8.6241 2.93234 7.8601 3.17234 7.2041C3.42034 6.5401 3.77234 6.0281 4.22834 5.6681C4.68434 5.3001 5.22434 5.1161 5.84834 5.1161C6.45634 5.1161 7.00834 5.2801 7.50434 5.6081L7.07234 6.3401C6.69634 6.1081 6.28434 5.9921 5.83634 5.9921C5.26034 5.9921 4.80434 6.2681 4.46834 6.8201C4.13234 7.3721 3.94834 8.1121 3.91634 9.0401C4.41234 8.3361 5.05634 7.9841 5.84834 7.9841ZM5.51234 12.5321C5.97634 12.5321 6.33234 12.3561 6.58034 12.0041C6.82834 11.6521 6.95234 11.1761 6.95234 10.5761C6.95234 9.4321 6.52034 8.8601 5.65634 8.8601C5.30434 8.8601 4.98034 8.9601 4.68434 9.1601C4.38834 9.3521 4.13634 9.6201 3.92834 9.9641C3.95234 10.8441 4.08834 11.4921 4.33634 11.9081C4.59234 12.3241 4.98434 12.5321 5.51234 12.5321Z" fill="black"/>
</svg>
